IKResults
version=1
nRows=5
nColumns=40
inDegrees=yes

Units are S.I. units (second, meters, Newtons, ...)
Angles are in degrees.

endheader
time	pelvis_tilt	pelvis_list	pelvis_rotation	pelvis_tx	pelvis_ty	pelvis_tz	hip_flexion_r	hip_adduction_r	hip_rotation_r	knee_angle_r	knee_angle_r_beta	ankle_angle_r	subtalar_angle_r	mtp_angle_r	hip_flexion_l	hip_adduction_l	hip_rotation_l	knee_angle_l	knee_angle_l_beta	ankle_angle_l	subtalar_angle_l	mtp_angle_l	lumbar_extension	lumbar_bending	lumbar_rotation	arm_flex_r	arm_add_r	arm_rot_r	elbow_flex_r	pro_sup_r	wrist_flex_r	wrist_dev_r	arm_flex_l	arm_add_l	arm_rot_l	elbow_flex_l	pro_sup_l	wrist_flex_l	wrist_dev_l
      2.64000000	     20.47025498	      1.88940607	     -4.73665404	      0.39785168	      0.95717141	     -1.46589780	    -14.19053341	     -6.70076745	     -4.30635191	    -57.37761078	     -1.00142822	     -0.51468549	    -13.83584238	     14.56385379	    -17.13155586	     -4.21317409	     24.45924245	     -8.87248816	     -0.15485413	      2.15115374	    -10.99301600	     -8.46109107	    -25.09690025	     -5.06200249	      0.19604939	     -1.91497718	     -9.95736565	      1.35324883	     18.79003949	     89.95437384	      0.00000000	      0.00000000	      2.57010122	     10.36262634	     -2.33215612	     19.11833010	     89.95437384	      0.00000000	      0.00000000
      2.65000000	     20.43384015	      1.66300781	     -4.40669079	      0.40335209	      0.95774236	     -1.46723276	    -13.18055443	     -6.25360955	     -4.34951596	    -57.43451458	     -1.00242138	      0.39900240	    -13.69250652	     14.16376653	    -17.49669635	     -3.99937451	     24.19562550	     -8.81814626	     -0.15390569	      2.29226070	    -10.98352490	     -8.36120913	    -25.20637630	     -4.70404584	     -0.31777428	     -1.85313087	     -9.92479291	      1.47989941	     18.77916471	     89.95437384	      0.00000000	      0.00000000	      3.62088100	     10.62829029	     -2.57404443	     19.25622774	     89.95437384	      0.00000000	      0.00000000
      2.66000000	     20.41297296	      1.43809849	     -4.02112135	      0.40875695	      0.95831725	     -1.46866532	    -12.23635485	     -5.79269787	     -4.46228125	    -57.26396993	     -0.99944482	      1.32133553	    -13.45317904	     13.73707009	    -17.82869977	     -3.76132818	     23.89548253	     -8.83834951	     -0.15425830	      2.47270787	    -10.89909369	     -8.24779162	    -25.33105661	     -4.31268114	     -0.82899404	     -1.86308517	     -9.91854784	      1.61211652	     18.89055947	     89.95437384	      0.00000000	      0.00000000	      4.69373996	     10.89021122	     -2.92618231	     19.40000288	     89.95437384	      0.00000000	      0.00000000
      2.67000000	     20.37613845	      1.17707630	     -3.49771897	      0.41397645	      0.95885822	     -1.47017167	    -11.31606253	     -5.26780709	     -4.73739771	    -56.88766821	     -0.99287711	      2.37675581	    -13.23150156	     13.24457650	    -18.07011503	     -3.42068900	     23.47579500	     -8.94728759	     -0.15615963	      2.69134625	    -10.75439966	     -8.12882065	    -25.47639727	     -3.83609041	     -1.39559470	     -1.87999841	     -9.90566142	      1.70830463	     19.05306347	     89.95437384	      0.00000000	      0.00000000	      5.77468009	     11.20632114	     -3.39576250	     19.65186101	     89.95437384	      0.00000000	      0.00000000
      2.68000000	     20.29864986	      1.04338088	     -3.22523027	      0.41936969	      0.95922104	     -1.47152170	    -10.28787389	     -5.04178848	     -5.05722828	    -56.45478666	     -0.98532191	      3.04680596	    -13.18253921	     12.94839124	    -18.34882390	     -3.29838642	     23.25557796	     -8.98162164	     -0.15675887	      2.87104197	    -10.69204107	     -8.02254951	    -25.51308703	     -3.56407279	     -1.75141222	     -1.90083309	     -9.90155097	      1.77833454	     19.10724366	     89.95437384	      0.00000000	      0.00000000	      6.80205504	     11.42442713	     -3.58663106	     19.96180033	     89.95437384	      0.00000000	      0.00000000
